<svg width="88" height="43" viewBox="0 0 88 43" fill="none" xmlns="http://www.w3.org/2000/svg">
<path d="M1.29746 22.6587V8.07869H7.29146V9.91469H3.96146V14.1627H6.67946V16.0167H3.96146V22.6587H1.29746ZM12.693 22.8567C11.661 22.8567 10.839 22.6647 10.227 22.2807C9.61501 21.8967 9.17701 21.3447 8.91301 20.6247C8.64901 19.9047 8.51701 19.0527 8.51701 18.0687V12.6147C8.51701 11.6307 8.64901 10.7907 8.91301 10.0947C9.17701 9.38669 9.61501 8.84669 10.227 8.47469C10.839 8.10269 11.661 7.91669 12.693 7.91669C13.749 7.91669 14.577 8.10269 15.177 8.47469C15.789 8.84669 16.227 9.38669 16.491 10.0947C16.767 10.7907 16.905 11.6307 16.905 12.6147V18.0867C16.905 19.0587 16.767 19.9047 16.491 20.6247C16.227 21.3327 15.789 21.8847 15.177 22.2807C14.577 22.6647 13.749 22.8567 12.693 22.8567ZM12.693 20.8947C13.137 20.8947 13.461 20.7987 13.665 20.6067C13.881 20.4147 14.025 20.1507 14.097 19.8147C14.169 19.4787 14.205 19.1127 14.205 18.7167V12.0027C14.205 11.5947 14.169 11.2287 14.097 10.9047C14.025 10.5807 13.881 10.3287 13.665 10.1487C13.461 9.95669 13.137 9.86069 12.693 9.86069C12.273 9.86069 11.955 9.95669 11.739 10.1487C11.523 10.3287 11.379 10.5807 11.307 10.9047C11.235 11.2287 11.199 11.5947 11.199 12.0027V18.7167C11.199 19.1127 11.229 19.4787 11.289 19.8147C11.361 20.1507 11.505 20.4147 11.721 20.6067C11.937 20.7987 12.261 20.8947 12.693 20.8947ZM18.8756 22.6587V8.07869H22.3676C23.3516 8.07869 24.1796 8.19869 24.8516 8.43869C25.5356 8.66669 26.0516 9.06269 26.3996 9.62669C26.7596 10.1907 26.9396 10.9587 26.9396 11.9307C26.9396 12.5187 26.8856 13.0467 26.7776 13.5147C26.6696 13.9827 26.4836 14.3847 26.2196 14.7207C25.9676 15.0447 25.6136 15.2967 25.1576 15.4767L27.1916 22.6587H24.5276L22.7636 15.9807H21.5396V22.6587H18.8756ZM21.5396 14.3067H22.3676C22.8836 14.3067 23.2916 14.2347 23.5916 14.0907C23.9036 13.9347 24.1256 13.6947 24.2576 13.3707C24.3896 13.0347 24.4556 12.6087 24.4556 12.0927C24.4556 11.3607 24.3176 10.8147 24.0416 10.4547C23.7776 10.0827 23.2676 9.89669 22.5116 9.89669H21.5396V14.3067ZM28.9303 22.6587V8.07869H35.0503V9.95069H31.5943V14.1447H34.3123V15.9987H31.5943V20.8227H35.0863V22.6587H28.9303ZM40.3015 22.8567C39.4255 22.8567 38.6935 22.6887 38.1055 22.3527C37.5175 22.0047 37.0735 21.5007 36.7735 20.8407C36.4735 20.1807 36.3055 19.3707 36.2695 18.4107L38.5555 17.9607C38.5795 18.5247 38.6455 19.0227 38.7535 19.4547C38.8735 19.8867 39.0475 20.2227 39.2755 20.4627C39.5155 20.6907 39.8275 20.8047 40.2115 20.8047C40.6435 20.8047 40.9495 20.6787 41.1295 20.4267C41.3095 20.1627 41.3995 19.8327 41.3995 19.4367C41.3995 18.8007 41.2555 18.2787 40.9675 17.8707C40.6795 17.4627 40.2955 17.0547 39.8155 16.6467L37.9795 15.0267C37.4635 14.5827 37.0495 14.0907 36.7375 13.5507C36.4375 12.9987 36.2875 12.3207 36.2875 11.5167C36.2875 10.3647 36.6235 9.47669 37.2955 8.85269C37.9675 8.22869 38.8855 7.91669 40.0495 7.91669C40.7335 7.91669 41.3035 8.02469 41.7595 8.24069C42.2155 8.44469 42.5755 8.73269 42.8395 9.10469C43.1155 9.47669 43.3195 9.90269 43.4515 10.3827C43.5835 10.8507 43.6675 11.3487 43.7035 11.8767L41.4355 12.2727C41.4115 11.8167 41.3575 11.4087 41.2735 11.0487C41.2015 10.6887 41.0635 10.4067 40.8595 10.2027C40.6675 9.99869 40.3795 9.89669 39.9955 9.89669C39.5995 9.89669 39.2935 10.0287 39.0775 10.2927C38.8735 10.5447 38.7715 10.8627 38.7715 11.2467C38.7715 11.7387 38.8735 12.1467 39.0775 12.4707C39.2815 12.7827 39.5755 13.1067 39.9595 13.4427L41.7775 15.0447C42.3775 15.5487 42.8875 16.1427 43.3075 16.8267C43.7395 17.4987 43.9555 18.3147 43.9555 19.2747C43.9555 19.9707 43.7995 20.5887 43.4875 21.1287C43.1875 21.6687 42.7615 22.0947 42.2095 22.4067C41.6695 22.7067 41.0335 22.8567 40.3015 22.8567ZM46.982 22.6587V10.0407H44.66V8.07869H51.932V10.0407H49.646V22.6587H46.982Z" fill="white"/>
<path d="M2.01446 35.6587V27.4087H1.24446V35.6587H2.01446ZM9.60189 35.6587V27.4087H8.85388L8.87589 34.1297L4.44288 27.4087H3.88188V35.6587H4.62988L4.60788 28.9377L9.04089 35.6587H9.60189ZM16.289 27.4087L13.946 34.5147L11.603 27.4087H10.756L13.671 35.7687H14.221L17.136 27.4087H16.289ZM22.6872 31.0167H19.0352V28.1017H23.0722V27.4087H18.2872V35.6587H23.0722V34.9657H19.0352V31.7097H22.6872V31.0167ZM25.3086 32.0507H27.2116C27.3326 32.0507 27.4536 32.0507 27.5746 32.0397L29.4226 35.6587H30.2916L28.3226 31.9187C29.4556 31.6217 29.8406 30.8297 29.8406 29.7297C29.8406 28.3107 29.2026 27.4087 27.1456 27.4087H24.5606V35.6587H25.3086V32.0507ZM25.3086 28.1017H27.3436C28.8066 28.1017 29.0266 28.8497 29.0266 29.7297C29.0266 30.6097 28.8066 31.3577 27.3436 31.3577H25.3086V28.1017ZM34.3076 35.0757C32.3166 35.0757 32.0196 33.5137 32.0196 31.5337C32.0196 29.5537 32.3166 27.9917 34.3076 27.9917C36.2986 27.9917 36.5956 29.5537 36.5956 31.5337C36.5956 33.5137 36.2986 35.0757 34.3076 35.0757ZM34.3076 35.7687C37.0026 35.7687 37.3876 33.6897 37.3876 31.5337C37.3876 29.3777 37.0026 27.2987 34.3076 27.2987C31.6126 27.2987 31.2276 29.3777 31.2276 31.5337C31.2276 33.6897 31.6126 35.7687 34.3076 35.7687ZM44.5892 35.6587V27.4087H43.8412L43.8632 34.1297L39.4302 27.4087H38.8692V35.6587H39.6172L39.5952 28.9377L44.0282 35.6587H44.5892ZM53.1243 28.3877L53.0803 35.6587H53.8283V27.4087H52.8163L50.0333 33.4807L47.2503 27.4087H46.2383V35.6587H46.9863L46.9423 28.3877L49.7253 34.3937H50.3413L53.1243 28.3877ZM59.8766 31.0167H56.2246V28.1017H60.2616V27.4087H55.4766V35.6587H60.2616V34.9657H56.2246V31.7097H59.8766V31.0167ZM67.47 35.6587V27.4087H66.722L66.744 34.1297L62.311 27.4087H61.75V35.6587H62.498L62.476 28.9377L66.909 35.6587H67.47ZM74.0252 28.1017V27.4087H68.7232V28.1017H71.0002V35.6587H71.7482V28.1017H74.0252ZM74.6906 35.6587L75.4496 33.3487H78.6176L79.3766 35.6587H80.2236L77.3086 27.2987H76.7586L73.8436 35.6587H74.6906ZM77.0336 28.5527L78.3976 32.6997H75.6586L77.0336 28.5527ZM82.0703 27.4087H81.3223V35.6587H85.8873V34.9657H82.0703V27.4087Z" fill="white"/>
<line x1="1.19946" y1="41.553" x2="60.1995" y2="41.553" stroke="#86DA44" stroke-width="2"/>
</svg>
